<svg width="173" height="173" viewBox="0 0 173 173" fill="none" xmlns="http://www.w3.org/2000/svg">
<circle cx="86.5" cy="86.5" r="86.5" fill="#210E07"/>
<path d="M56.0952 96.6628C53.3913 97.4494 50.8755 97.5703 48.548 97.0254C46.2487 96.4723 44.2484 95.2671 42.5472 93.4097C40.846 91.5523 39.5324 89.0323 38.6065 85.8495C37.6151 82.4415 37.4089 79.3701 37.9881 76.6355C38.5955 73.8927 39.8455 71.5739 41.7382 69.6791C43.6591 67.7761 46.0983 66.3944 49.0557 65.5341C50.633 65.0752 52.189 64.8058 53.7238 64.726C55.2585 64.6461 56.6453 64.7925 57.8841 65.1653L56.8118 70.9303C55.8311 70.6046 54.8473 70.4784 53.8605 70.5516C52.8655 70.5967 51.861 70.7667 50.847 71.0617C48.284 71.8073 46.4814 73.1719 45.4392 75.1552C44.3971 77.1386 44.3185 79.6513 45.2034 82.6932C45.3509 83.2001 45.5148 83.7635 45.6951 84.3831C45.9035 84.9945 46.1682 85.5896 46.4893 86.1683L44.0719 84.9469C44.2875 83.6928 44.7113 82.5767 45.3432 81.5985C45.967 80.5922 46.803 79.7381 47.8513 79.036C48.9195 78.2975 50.1578 77.7234 51.5661 77.3137C53.4813 76.7566 55.31 76.637 57.0522 76.955C58.7944 77.273 60.3169 77.991 61.6197 79.1089C62.9507 80.2186 63.8865 81.7029 64.4273 83.5619C65.0091 85.5616 65.0101 87.4554 64.4304 89.2432C63.8707 90.9946 62.8647 92.5245 61.4123 93.8329C59.98 95.105 58.2076 96.0483 56.0952 96.6628ZM54.2278 91.6613C55.1854 91.3828 55.9812 90.968 56.6152 90.4169C57.2691 89.8295 57.709 89.1364 57.9349 88.3375C58.1607 87.5386 58.1466 86.7026 57.8926 85.8295C57.4993 84.4775 56.7232 83.5424 55.5643 83.0242C54.4254 82.4696 53.0955 82.4135 51.5745 82.856C50.5606 83.151 49.7307 83.6062 49.0849 84.2218C48.431 84.8092 47.977 85.5064 47.723 86.3135C47.489 87.0842 47.499 87.9061 47.753 88.7792C47.9988 89.6242 48.4313 90.3232 49.0504 90.8763C49.6613 91.4012 50.4044 91.7502 51.2796 91.9233C52.1466 92.0682 53.1293 91.9809 54.2278 91.6613ZM84.5588 88.3824C82.1366 89.087 79.7957 89.1265 77.5363 88.5007C75.2687 87.8467 73.2538 86.5388 71.4917 84.577C69.7295 82.6151 68.3773 80.0146 67.435 76.7756C66.4928 73.5365 66.239 70.6165 66.6738 68.0155C67.1085 65.4146 68.1115 63.244 69.6826 61.5039C71.2455 59.7356 73.2381 58.4991 75.6604 57.7944C78.1108 57.0816 80.4557 57.0562 82.6952 57.7184C84.9546 58.3441 86.9654 59.638 88.7275 61.5998C90.4897 63.5617 91.8419 66.1622 92.7842 69.4012C93.7265 72.6403 93.9802 75.5603 93.5454 78.1613C93.1107 80.7622 92.1118 82.9469 90.5489 84.7152C89.0059 86.4471 87.0092 87.6695 84.5588 88.3824ZM82.875 82.5943C84.0298 82.2584 84.9354 81.6436 85.592 80.75C86.2766 79.8482 86.6535 78.6235 86.7227 77.0759C86.82 75.5201 86.545 73.6297 85.8977 71.4046C85.2503 69.1795 84.4684 67.4365 83.5517 66.1758C82.6632 64.9068 81.6881 64.0754 80.6265 63.6816C79.5931 63.2796 78.499 63.2465 77.3442 63.5825C76.2176 63.9102 75.3119 64.525 74.6272 65.4268C73.9707 66.3205 73.5938 67.5451 73.4965 69.1009C73.4274 70.6485 73.7165 72.5348 74.3638 74.7599C75.0111 76.985 75.779 78.7321 76.6675 80.0011C77.5842 81.2618 78.5592 82.0932 79.5927 82.4952C80.6543 82.889 81.7484 82.9221 82.875 82.5943ZM106.791 81.3649L118.382 45.916L123.41 44.4534L111.818 79.9023L106.791 81.3649ZM105.41 67.0111C103.974 67.429 102.612 67.4738 101.325 67.1456C100.03 66.7892 98.8826 66.0996 97.8825 65.077C96.9023 64.0179 96.1705 62.6575 95.6871 60.9957C95.2037 59.334 95.0956 57.8074 95.3629 56.416C95.6584 55.0164 96.257 53.8189 97.1588 52.8233C98.0607 51.8278 99.2298 51.1211 100.666 50.7032C102.103 50.2853 103.468 50.2546 104.764 50.611C106.059 50.9674 107.192 51.6611 108.164 52.6919C109.136 53.7228 109.864 55.0691 110.347 56.7309C110.831 58.3927 110.943 59.9333 110.684 61.3529C110.416 62.7443 109.832 63.9377 108.93 64.9333C108.02 65.9006 106.847 66.5933 105.41 67.0111ZM104.403 63.5468C105.332 63.2764 105.968 62.679 106.31 61.7547C106.644 60.8021 106.581 59.5372 106.122 57.96C105.664 56.3827 105.042 55.2957 104.257 54.6991C103.465 54.0744 102.604 53.8972 101.674 54.1676C100.773 54.4298 100.141 55.0412 99.779 56.002C99.437 56.9263 99.4953 58.1771 99.9542 59.7544C100.405 61.3035 101.027 62.3904 101.819 63.0152C102.64 63.6318 103.501 63.809 104.403 63.5468ZM129.534 75.1151C128.126 75.5248 126.764 75.5696 125.449 75.2496C124.154 74.8931 123.021 74.1995 122.049 73.1686C121.069 72.1096 120.337 70.7492 119.853 69.0874C119.37 67.4257 119.262 65.8991 119.529 64.5077C119.796 63.1163 120.381 61.9228 121.283 60.9273C122.213 59.9236 123.382 59.2169 124.79 58.8072C126.255 58.3811 127.635 58.3463 128.93 58.7027C130.225 59.0591 131.358 59.7528 132.33 60.7836C133.302 61.8145 134.03 63.1608 134.514 64.8226C134.997 66.4844 135.109 68.025 134.85 69.4446C134.583 70.836 133.998 72.0294 133.096 73.025C132.186 73.9923 130.999 74.689 129.534 75.1151ZM128.527 71.6507C129.456 71.3803 130.092 70.783 130.434 69.8586C130.768 68.9061 130.705 67.6412 130.246 66.0639C129.796 64.5148 129.174 63.4279 128.381 62.8031C127.589 62.1784 126.728 62.0012 125.798 62.2716C124.897 62.5338 124.265 63.1452 123.903 64.1059C123.561 65.0303 123.619 66.2811 124.078 67.8584C124.537 69.4356 125.163 70.5367 125.956 71.1614C126.768 71.7498 127.625 71.9129 128.527 71.6507Z" fill="white"/>
<path d="M84.2479 131.651C82.4863 132.164 80.812 132.251 79.225 131.913C77.6585 131.568 76.2911 130.878 75.1228 129.84C73.9689 128.776 73.1537 127.425 72.6769 125.786C72.1942 124.127 72.1574 122.549 72.5663 121.052C72.9898 119.529 73.7732 118.213 74.9166 117.103C76.0745 115.966 77.5343 115.141 79.2959 114.629C81.037 114.122 82.7011 114.038 84.2881 114.376C85.8691 114.694 87.2335 115.375 88.3814 116.418C89.5292 117.462 90.3475 118.823 90.8361 120.503C91.3129 122.142 91.3497 123.72 90.9468 125.237C90.5378 126.733 89.7544 128.05 88.5965 129.186C87.4386 130.323 85.989 131.145 84.2479 131.651ZM83.1037 127.718C83.9026 127.486 84.5659 127.093 85.0937 126.539C85.6214 125.986 85.9713 125.318 86.1434 124.534C86.3095 123.731 86.2555 122.858 85.9814 121.915C85.7013 120.953 85.2786 120.187 84.7132 119.618C84.1479 119.049 83.494 118.673 82.7518 118.489C82.0095 118.305 81.2389 118.329 80.44 118.562C79.6412 118.794 78.9778 119.187 78.4501 119.741C77.9223 120.294 77.5622 120.965 77.3697 121.754C77.1976 122.538 77.2516 123.411 77.5317 124.373C77.8058 125.316 78.2285 126.081 78.7998 126.671C79.3857 127.233 80.0497 127.607 80.792 127.791C81.5343 127.975 82.3049 127.951 83.1037 127.718ZM98.5647 127.22L93.6484 110.32C93.1061 108.456 93.2272 106.81 94.0115 105.382C94.7899 103.934 96.2033 102.912 98.2517 102.316C98.9482 102.113 99.6348 101.991 100.312 101.95C101.009 101.902 101.627 101.967 102.167 102.143L101.918 105.982C101.598 105.875 101.259 105.818 100.901 105.811C100.544 105.804 100.181 105.854 99.8121 105.961C99.1156 106.164 98.6324 106.526 98.3624 107.049C98.1069 107.546 98.0953 108.193 98.3277 108.992L98.7747 110.529L99.4965 112.551L103.358 125.825L98.5647 127.22ZM92.3853 115.487L91.3127 111.799L102.774 108.465L103.846 112.153L92.3853 115.487ZM112.223 123.246L107.307 106.347C106.765 104.483 106.886 102.837 107.67 101.409C108.449 99.9602 109.862 98.9381 111.91 98.3422C112.607 98.1396 113.294 98.0176 113.97 97.9762C114.667 97.9289 115.286 97.9934 115.826 98.1695L115.576 102.008C115.257 101.901 114.918 101.844 114.56 101.837C114.203 101.83 113.84 101.88 113.471 101.987C112.774 102.19 112.291 102.553 112.021 103.076C111.766 103.572 111.754 104.22 111.986 105.019L112.433 106.555L113.155 108.578L117.017 121.852L112.223 123.246ZM106.044 111.513L104.971 107.826L116.432 104.492L117.505 108.179L106.044 111.513Z" fill="white"/>
</svg>
